<?xml version="1.0" encoding="utf-8"?>
<!-- Generator: Adobe Illustrator 16.0.5, SVG Export Plug-In . SVG Version: 6.00 Build 0)  -->
<!DOCTYPE svg PUBLIC "-//W3C//DTD SVG 1.1//EN" "http://www.w3.org/Graphics/SVG/1.1/DTD/svg11.dtd">
<svg version="1.1" id="Layer_1" xmlns="http://www.w3.org/2000/svg" xmlns:xlink="http://www.w3.org/1999/xlink" x="0px" y="0px"
	 width="16px" height="16px" viewBox="0 0 16 16" enable-background="new 0 0 16 16" xml:space="preserve">
<g>
	<g>
		<path fill="#E0E0E0" d="M8.137,14.917c-3.955,0-7.053-3.033-7.053-6.902c0-3.823,3.109-6.932,6.932-6.932
			c3.74,0,6.9,2.883,6.9,6.296c0,2.911-1.307,4.645-3.494,4.645c-0.955,0-1.816-0.549-2.123-1.277
			c-0.414,0.326-1.05,0.58-1.708,0.58c-1.929,0-3.329-1.461-3.329-3.479c0-2.017,1.4-3.48,3.329-3.48
			c0.665,0,1.243,0.258,1.616,0.586c0.176-0.269,0.48-0.435,0.852-0.435c0.596,0,1.029,0.419,1.029,0.998v3.739
			c0,0.866,0.32,1.044,0.803,1.044c0.574,0,1.424-0.929,1.424-2.92c0-2.184-2.314-4.723-5.299-4.723
			c-2.888,0-5.327,2.454-5.327,5.358c0,2.937,2.444,5.326,5.448,5.326c1.412,0,2.072-0.143,3.068-0.66
			c0.146-0.076,0.295-0.117,0.436-0.117c0.344,0,0.592,0.23,0.67,0.443c0.053,0.143,0.174,0.633-0.441,0.965
			C10.664,14.624,9.514,14.917,8.137,14.917z M7.744,6.396c-0.883,0-1.5,0.598-1.5,1.453c0,0.847,0.617,1.438,1.5,1.438
			c0.868,0,1.498-0.605,1.498-1.438C9.242,7.007,8.612,6.396,7.744,6.396z"/>
		<path fill="#E0E0E0" d="M10.785,5.517v3.739c0,0.649,0.168,1.347,1.105,1.347c0.773,0,1.725-1.074,1.725-3.223
			c0-2.332-2.436-5.025-5.6-5.025c-3.178,0-5.63,2.755-5.63,5.661c0,2.921,2.422,5.63,5.751,5.63c1.408,0,2.135-0.137,3.209-0.695
			c0.41-0.215,0.635,0.045,0.682,0.166c0.045,0.117,0.09,0.377-0.303,0.592c-1.061,0.574-2.135,0.904-3.588,0.904
			c-3.875,0-6.751-2.979-6.751-6.597c0-3.618,2.922-6.63,6.63-6.63c3.709,0,6.602,2.832,6.602,5.994
			c0,2.573-1.049,4.344-3.195,4.344c-1.014,0-1.938-0.711-1.938-1.545c0-0.061-0.031-0.09-0.047-0.029
			c-0.195,0.393-0.999,0.879-1.847,0.879c-1.756,0-3.026-1.318-3.026-3.18c0-1.876,1.271-3.178,3.026-3.178
			c0.848,0,1.515,0.469,1.712,0.877c0.016,0.046,0.045,0.015,0.045-0.031c0-0.423,0.303-0.695,0.711-0.695
			C10.48,4.821,10.785,5.093,10.785,5.517z M9.545,7.848c0-0.999-0.742-1.755-1.801-1.755c-1.076,0-1.802,0.756-1.802,1.755
			c0,0.984,0.726,1.741,1.802,1.741C8.803,9.589,9.545,8.833,9.545,7.848z"/>
	</g>
</g>
<g>
</g>
<g>
</g>
<g>
</g>
<g>
</g>
<g>
</g>
<g>
</g>
</svg>
