<?xml version="1.0" encoding="utf-8"?>
<!-- Generator: Adobe Illustrator 16.0.5, SVG Export Plug-In . SVG Version: 6.00 Build 0)  -->
<!DOCTYPE svg PUBLIC "-//W3C//DTD SVG 1.1//EN" "http://www.w3.org/Graphics/SVG/1.1/DTD/svg11.dtd">
<svg version="1.1" id="Layer_1" xmlns="http://www.w3.org/2000/svg" xmlns:xlink="http://www.w3.org/1999/xlink" x="0px" y="0px"
	 width="16px" height="16px" viewBox="0 0 16 16" enable-background="new 0 0 16 16" xml:space="preserve">
<path fill="#CCCCCC" d="M13.018,11.244c-0.252,0.41-0.549,0.787-0.891,1.123l0.141,1.93c-0.643,0.449-1.359,0.797-2.127,1.027
	L8.718,14.01C8.483,14.039,8.244,14.059,8,14.059c-0.244,0-0.483-0.02-0.719-0.049l-1.423,1.314
	c-0.768-0.23-1.483-0.578-2.126-1.025l0.141-1.932c-0.342-0.336-0.64-0.713-0.892-1.123l-1.919-0.293
	c-0.29-0.719-0.472-1.494-0.524-2.304L2.13,7.558C2.179,7.07,2.294,6.602,2.456,6.156L1.49,4.475
	c0.392-0.691,0.889-1.314,1.473-1.846l1.853,0.567c0.4-0.257,0.834-0.467,1.292-0.624l0.711-1.802C7.204,0.709,7.598,0.677,8,0.677
	c0.401,0,0.795,0.032,1.18,0.094l0.711,1.802c0.459,0.156,0.893,0.366,1.293,0.624l1.854-0.567c0.584,0.532,1.08,1.155,1.473,1.846
	l-0.967,1.681c0.162,0.446,0.277,0.914,0.326,1.402l1.592,1.089c-0.053,0.81-0.234,1.585-0.523,2.304L13.018,11.244z M8.334,10.875
	l0.92-0.113l0.662-0.65c0.152-0.148,0.293-0.326,0.416-0.527l0.488-0.792l-0.092-0.917c-0.021-0.205-0.07-0.417-0.154-0.646
	l-0.316-0.874L9.475,5.851c-0.186-0.12-0.389-0.217-0.599-0.289L8,5.265L7.125,5.562C6.913,5.634,6.711,5.731,6.526,5.851
	L5.742,6.355L5.424,7.231C5.342,7.459,5.292,7.67,5.271,7.875L5.179,8.792l0.489,0.792c0.123,0.201,0.263,0.379,0.415,0.527
	l0.664,0.65l0.918,0.113C7.802,10.893,7.912,10.9,8,10.9C8.088,10.9,8.197,10.893,8.334,10.875z"/>
<g>
</g>
<g>
</g>
<g>
</g>
<g>
</g>
<g>
</g>
<g>
</g>
</svg>
